<svg id="ep2hau35eiud1" xmlns="http://www.w3.org/2000/svg" xmlns:xlink="http://www.w3.org/1999/xlink" viewBox="0 0 80 80" shape-rendering="geometricPrecision" text-rendering="geometricPrecision"><style><![CDATA[#ep2hau35eiud5 {animation: ep2hau35eiud5_s_do 1000ms ease-in-out infinite  alternate}@keyframes ep2hau35eiud5_s_do { 0% {stroke-dashoffset: 7.750000} 29.600000% {stroke-dashoffset: 0} 100% {stroke-dashoffset: 0} }#ep2hau35eiud6 {animation: ep2hau35eiud6_s_do 1000ms ease-in-out .2s infinite  alternate}@keyframes ep2hau35eiud6_s_do { 0% {stroke-dashoffset: 7.750000} 29.600000% {stroke-dashoffset: 0} 100% {stroke-dashoffset: 0} }#ep2hau35eiud7 {animation: ep2hau35eiud7_s_do 1000ms ease-in-out .4s infinite  alternate}@keyframes ep2hau35eiud7_s_do { 0% {stroke-dashoffset: 7.750000} 29.600000% {stroke-dashoffset: 0} 100% {stroke-dashoffset: 0} }]]></style><path id="ep2hau35eiud2" d="M49.190000,31.840000L49.190000,31.840000C53.306149,31.811245,56.854266,34.729363,57.620574,38.773654C58.386882,42.817944,56.152223,46.831776,52.310870,48.310800C48.469516,49.789824,44.120058,48.311052,41.976254,44.797135C39.832449,41.283218,40.507407,36.739103,43.580000,34C45.132246,32.639619,47.125998,31.889741,49.190000,31.890000M49.190000,30.890000C44.708631,30.888887,40.833244,34.013344,39.883765,38.392975C38.934287,42.772605,41.167828,47.221442,45.247321,49.076275C49.326815,50.931107,54.147569,49.689662,56.823732,46.095107C59.499894,42.500552,59.306783,37.526262,56.360000,34.100000C54.553464,32.078173,51.938826,30.889369,49.190000,30.890000Z" fill="rgb(113,191,68)" stroke="none" stroke-width="1"/><path id="ep2hau35eiud3" d="M53,48.680000L58.380000,54.850000C59.206986,55.914333,60.736456,56.114992,61.810000,55.300000L61.810000,55.300000C62.751539,54.342716,62.751539,52.807284,61.810000,51.850000L56.420000,45.690000" fill="none" stroke="rgb(113,191,68)" stroke-width="1" stroke-miterlimit="10"/><g id="ep2hau35eiud4"><line id="ep2hau35eiud5" x1="45.390000" y1="37.410000" x2="53.140000" y2="37.410000" fill="none" stroke="rgb(113,191,68)" stroke-width="1" stroke-linecap="round" stroke-linejoin="round" stroke-dashoffset="7.750000" stroke-dasharray="7.750000"/><line id="ep2hau35eiud6" x1="45.390000" y1="40.630000" x2="53.140000" y2="40.630000" transform="matrix(1 0 0 1 -0.14000000000000 -0.07000000000000)" fill="none" stroke="rgb(113,191,68)" stroke-width="1" stroke-linecap="round" stroke-linejoin="round" stroke-dashoffset="7.750000" stroke-dasharray="7.750000"/><line id="ep2hau35eiud7" x1="45.390000" y1="43.840000" x2="53.140000" y2="43.840000" fill="none" stroke="rgb(113,191,68)" stroke-width="1" stroke-linecap="round" stroke-linejoin="round" stroke-dashoffset="7.750000" stroke-dasharray="7.750000"/></g><path id="ep2hau35eiud8" d="M39.320000,55.470000C38.767715,55.470000,38.320000,55.917715,38.320000,56.470000C38.320000,57.022285,38.767715,57.470000,39.320000,57.470000C39.872285,57.470000,40.320000,57.022285,40.320000,56.470000C40.334596,56.200573,40.233935,55.937650,40.043142,55.746858C39.852350,55.556065,39.589427,55.455404,39.320000,55.470000Z" fill="rgb(113,191,68)" stroke="none" stroke-width="1"/><line id="ep2hau35eiud9" x1="27.480000" y1="27.400000" x2="50.920000" y2="27.400000" fill="none" stroke="rgb(113,191,68)" stroke-width="1" stroke-linejoin="round"/><path id="ep2hau35eiud10" d="M27.480000,52.330000L50.360000,52.330000L50.940000,52.400000L50.940000,58.400000C50.940000,59.060389,50.677661,59.693730,50.210696,60.160696C49.743730,60.627661,49.110389,60.890000,48.450000,60.890000L29.600000,60.890000C28.227088,60.884519,27.115481,59.772912,27.110000,58.400000L27.110000,22.720000C27.115481,21.347088,28.227088,20.235481,29.600000,20.230000L48.450000,20.230000C49.110389,20.230000,49.743730,20.492339,50.210696,20.959304C50.677661,21.426270,50.940000,22.059611,50.940000,22.720000L50.940000,28.720000" fill="none" stroke="rgb(113,191,68)" stroke-width="1" stroke-linecap="round" stroke-linejoin="round"/><path id="ep2hau35eiud11" d="M40,1C61.539105,1,79,18.460895,79,40C79,61.539105,61.539105,79,40,79C18.460895,79,1,61.539105,1,40C1.027547,18.472315,18.472315,1.027547,40,1M40,0C17.908610,0,0,17.908610,0,40C0,62.091390,17.908610,80,40,80C62.091390,80,80,62.091390,80,40C80,17.908610,62.091390,0,40,0Z" fill="rgb(113,191,68)" stroke="none" stroke-width="1" stroke-dasharray="496.420000"/></svg>