<svg id="eeltofhsd23d1" xmlns="http://www.w3.org/2000/svg" xmlns:xlink="http://www.w3.org/1999/xlink" viewBox="0 0 80 80" shape-rendering="geometricPrecision" text-rendering="geometricPrecision"><style><![CDATA[#eeltofhsd23d4 {animation: eeltofhsd23d4_s_do 2000ms ease-in-out infinite alternate}@keyframes eeltofhsd23d4_s_do { 0% {stroke-dashoffset: 11.650000} 29.600000% {stroke-dashoffset: 0} 100% {stroke-dashoffset: 0} }#eeltofhsd23d5 {animation: eeltofhsd23d5_s_do 2000ms ease-in-out infinite alternate}@keyframes eeltofhsd23d5_s_do { 0% {stroke-dashoffset: 11.500000} 29.600000% {stroke-dashoffset: 0} 100% {stroke-dashoffset: 0} }#eeltofhsd23d10_tr {animation: eeltofhsd23d10_tr__tr 2000ms ease-in-out infinite alternate}@keyframes eeltofhsd23d10_tr__tr { 0% {transform: translate(40px,41.693593px) rotate(-44.532017deg)} 29.600000% {transform: translate(40px,41.693593px) rotate(0deg)} 100% {transform: translate(40px,41.693593px) rotate(0deg)} }#eeltofhsd23d14 {animation: eeltofhsd23d14_s_do 2000ms ease-in-out infinite alternate}@keyframes eeltofhsd23d14_s_do { 0% {stroke-dashoffset: 28.880000} 29.600000% {stroke-dashoffset: 0} 100% {stroke-dashoffset: 0} }]]></style><path id="eeltofhsd23d2" d="M40,1C61.539105,1,79,18.460895,79,40C79,61.539105,61.539105,79,40,79C18.460895,79,1,61.539105,1,40C1.027547,18.472315,18.472315,1.027547,40,1M40,0C17.908610,0,0,17.908610,0,40C0,62.091390,17.908610,80,40,80C62.091390,80,80,62.091390,80,40C80,17.908610,62.091390,0,40,0Z" fill="rgb(113,191,68)" stroke="none" stroke-width="1"/><path id="eeltofhsd23d3" d="M20.690000,44.750000C19.419595,36.650596,23.298168,28.611056,30.428293,24.564379C37.558418,20.517701,46.449420,21.309914,52.751760,26.553461C59.054100,31.797009,61.450166,40.395636,58.767785,48.142836C56.085404,55.890036,48.885374,61.166124,40.690000,61.390000L28.830000,61.390000" fill="none" stroke="rgb(113,191,68)" stroke-width="1" stroke-miterlimit="10"/><line id="eeltofhsd23d4" x1="32.350000" y1="55.500000" x2="20.700000" y2="55.500000" fill="none" stroke="rgb(113,191,68)" stroke-width="1" stroke-miterlimit="10" stroke-dashoffset="11.650000" stroke-dasharray="11.650000"/><line id="eeltofhsd23d5" x1="28.520000" y1="49.970000" x2="17.020000" y2="49.970000" fill="none" stroke="rgb(113,191,68)" stroke-width="1" stroke-miterlimit="10" stroke-dashoffset="11.500000" stroke-dasharray="11.500000"/><line id="eeltofhsd23d6" x1="56.050000" y1="25.660000" x2="54.070000" y2="27.660000" fill="none" stroke="rgb(113,191,68)" stroke-width="1" stroke-miterlimit="10"/><line id="eeltofhsd23d7" x1="54.520000" y1="24.130000" x2="57.670000" y2="27.040000" fill="none" stroke="rgb(113,191,68)" stroke-width="1" stroke-miterlimit="10"/><line id="eeltofhsd23d8" x1="24.140000" y1="25.660000" x2="26.130000" y2="27.660000" fill="none" stroke="rgb(113,191,68)" stroke-width="1" stroke-miterlimit="10"/><line id="eeltofhsd23d9" x1="25.670000" y1="24.130000" x2="22.530000" y2="27.040000" fill="none" stroke="rgb(113,191,68)" stroke-width="1" stroke-miterlimit="10"/><g id="eeltofhsd23d10_tr" transform="translate(40,41.693593) rotate(-44.532017)"><g id="eeltofhsd23d10" transform="translate(-40,-41.693593)"><path id="eeltofhsd23d11" d="M38,43L35.900000,45.090000C35.685452,45.336787,35.699460,45.707777,35.932008,45.937682C36.164555,46.167587,36.535681,46.177354,36.780000,45.960000L38.930000,43.800000C38.557897,43.615422,38.238114,43.340340,38,43Z" fill="rgb(113,191,68)" stroke="none" stroke-width="1"/><path id="eeltofhsd23d12" d="M50.210000,30.930000C50.043057,30.928227,49.883179,30.997266,49.770000,31.120000L41.380000,39.570000C41.728551,39.804565,42.010927,40.124820,42.200000,40.500000L50.650000,32C50.888816,31.755274,50.888816,31.364726,50.650000,31.120000C50.533076,31.003920,50.374757,30.939154,50.210000,30.940000Z" fill="rgb(113,191,68)" stroke="none" stroke-width="1"/></g></g><path id="eeltofhsd23d13" d="M40,37.930000C38.506625,37.930005,37.160489,38.830131,36.589938,40.210218C36.019387,41.590304,36.336925,43.178220,37.394332,44.232762C38.451739,45.287303,40.040512,45.600531,41.419045,45.026237C42.797578,44.451943,43.694047,43.103369,43.690000,41.610000C43.690004,40.632268,43.300918,39.694727,42.608620,39.004305C41.916322,38.313883,40.977728,37.927343,40,37.930000ZM40,44.060000C38.646902,44.060000,37.550000,42.963098,37.550000,41.610000C37.550000,40.256902,38.646902,39.160000,40,39.160000C41.353098,39.160000,42.450000,40.256902,42.450000,41.610000C42.450000,42.259780,42.191876,42.882947,41.732412,43.342412C41.272947,43.801876,40.649780,44.060000,40,44.060000Z" fill="rgb(113,191,68)" stroke="none" stroke-width="1"/><path id="eeltofhsd23d14" d="M54.100000,36.330000C55.605186,40.355035,55.311791,44.832332,53.294215,48.626523C51.276639,52.420713,47.728665,55.167375,43.550000,56.170000C42.419243,56.435760,41.261567,56.569983,40.100000,56.570000" fill="none" stroke="rgb(113,191,68)" stroke-width="1" stroke-miterlimit="10" stroke-dashoffset="28.880000" stroke-dasharray="28.880000"/><path id="eeltofhsd23d15" d="M42.290000,15.230000C42.850907,15.230000,43.369206,15.529240,43.649660,16.020000C43.930113,16.500760,43.930113,17.099240,43.649660,17.585000C43.369206,18.070760,42.850907,18.370000,42.290000,18.370000L37.760000,18.370000C37.199093,18.370000,36.680794,18.070760,36.400340,17.585000C36.119887,17.099240,36.119887,16.500760,36.400340,16.020000C36.680794,15.529240,37.199093,15.230000,37.760000,15.230000L42.290000,15.230000M42.290000,14.230000L37.760000,14.230000C36.340628,14.230000,35.190000,15.380628,35.190000,16.800000C35.190000,18.219372,36.340628,19.370000,37.760000,19.370000L42.290000,19.370000C43.709372,19.370000,44.860000,18.219372,44.860000,16.800000C44.860000,15.380628,43.709372,14.230000,42.290000,14.230000Z" fill="rgb(113,191,68)" stroke="none" stroke-width="1"/><line id="eeltofhsd23d16" x1="37.800000" y1="18.873888" x2="37.800000" y2="21.980000" fill="none" stroke="rgb(113,191,68)" stroke-width="1" stroke-miterlimit="10"/><line id="eeltofhsd23d17" x1="42.130000" y1="18.873888" x2="42.130000" y2="21.980000" fill="none" stroke="rgb(113,191,68)" stroke-width="1" stroke-miterlimit="10"/></svg>