<svg id="ee169iqh4491" xmlns="http://www.w3.org/2000/svg" xmlns:xlink="http://www.w3.org/1999/xlink" viewBox="0 0 80 80" shape-rendering="geometricPrecision" text-rendering="geometricPrecision"><style><![CDATA[#ee169iqh44915 {animation: ee169iqh44915_s_do 3000ms ease-in-out infinite alternate}@keyframes ee169iqh44915_s_do { 0% {stroke-dashoffset: 19.850000} 30% {stroke-dashoffset: 0} 100% {stroke-dashoffset: 0} }#ee169iqh44916 {animation: ee169iqh44916_s_do 3000ms ease-in-out .2s infinite alternate}@keyframes ee169iqh44916_s_do { 0% {stroke-dashoffset: 19.580000} 30% {stroke-dashoffset: 0} 100% {stroke-dashoffset: 0} }#ee169iqh44917 {animation: ee169iqh44917_s_do 3000ms ease-in-out .2s infinite alternate}@keyframes ee169iqh44917_s_do { 0% {stroke-dashoffset: 19.740000} 30% {stroke-dashoffset: 0} 100% {stroke-dashoffset: 0} }#ee169iqh44918 {animation: ee169iqh44918_s_do 3000ms ease-in-out .4s infinite alternate}@keyframes ee169iqh44918_s_do { 0% {stroke-dashoffset: 19.640000} 30% {stroke-dashoffset: 0} 100% {stroke-dashoffset: 0} }#ee169iqh44919 {animation: ee169iqh44919_s_do 3000ms ease-in-out .4s infinite alternate}@keyframes ee169iqh44919_s_do { 0% {stroke-dashoffset: 18.980000} 30% {stroke-dashoffset: 0} 100% {stroke-dashoffset: 0} }#ee169iqh44920 {animation: ee169iqh44920_s_do 3000ms ease-in-out .4s infinite alternate}@keyframes ee169iqh44920_s_do { 0% {stroke-dashoffset: 18.890000} 30% {stroke-dashoffset: 0} 100% {stroke-dashoffset: 0} }]]></style><path id="ee169iqh4492" d="M40,1C61.539105,1,79,18.460895,79,40C79,61.539105,61.539105,79,40,79C18.460895,79,1,61.539105,1,40C1.027547,18.472315,18.472315,1.027547,40,1M40,0C17.908610,0,0,17.908610,0,40C0,62.091390,17.908610,80,40,80C62.091390,80,80,62.091390,80,40C80,17.908610,62.091390,0,40,0Z" fill="rgb(113,191,68)" stroke="none" stroke-width="1"/><path id="ee169iqh4493" d="M34.650000,32.320000C34.650011,33.746521,33.496511,34.904492,32.070000,34.910000L24.380000,34.910000C22.951860,34.904518,21.795482,33.748140,21.790000,32.320000L21.790000,25C21.795502,23.965612,22.635597,23.129985,23.670000,23.130000L32.070000,23.130000C33.492618,23.135482,34.644518,24.287382,34.650000,25.710000" fill="none" stroke="rgb(113,191,68)" stroke-width="1" stroke-linecap="round" stroke-linejoin="round"/><path id="ee169iqh4494" d="M38,32.320000L38,35.680000C38.000011,37.106521,36.846511,38.264492,35.420000,38.270000L21,38.270000C19.571860,38.264518,18.415482,37.108140,18.410000,35.680000L18.410000,22.300000C18.415508,20.873489,19.573479,19.719989,21,19.720000L35.430000,19.720000C36.848711,19.730945,37.994564,20.881257,38,22.300000L38,25.660000" fill="none" stroke="rgb(113,191,68)" stroke-width="1" stroke-linecap="round" stroke-linejoin="round"/><path id="ee169iqh4495" d="M48.820000,34.910000L47.930000,34.910000C46.503489,34.904492,45.349989,33.746521,45.350000,32.320000" fill="none" stroke="rgb(113,191,68)" stroke-width="1" stroke-linecap="round" stroke-linejoin="round"/><path id="ee169iqh4496" d="M45.350000,25.660000C45.355482,24.237382,46.507382,23.085482,47.930000,23.080000L55.620000,23.080000C57.046521,23.079989,58.204492,24.233489,58.210000,25.660000L58.210000,33C58.204533,34.036022,57.366022,34.874533,56.330000,34.880000L55,34.880000" fill="none" stroke="rgb(113,191,68)" stroke-width="1" stroke-linecap="round" stroke-linejoin="round"/><path id="ee169iqh4497" d="M48.820000,38.270000L44.570000,38.270000C43.147399,38.259014,41.999958,37.102643,42,35.680000L42,32.320000" fill="none" stroke="rgb(113,191,68)" stroke-width="1" stroke-linecap="round" stroke-linejoin="round"/><path id="ee169iqh4498" d="M42,25.660000L42,22.300000C42.005482,20.877382,43.157382,19.725482,44.580000,19.720000L59,19.720000C60.426521,19.719989,61.584492,20.873489,61.590000,22.300000L61.590000,35.680000C61.584518,37.108140,60.428140,38.264518,59,38.270000L55,38.270000" fill="none" stroke="rgb(113,191,68)" stroke-width="1" stroke-linecap="round" stroke-linejoin="round"/><path id="ee169iqh4499" d="M34.650000,54.340000C34.644518,55.762618,33.492618,56.914518,32.070000,56.920000L24.380000,56.920000C22.953479,56.920011,21.795508,55.766511,21.790000,54.340000L21.790000,47C21.795467,45.963978,22.633978,45.125467,23.670000,45.120000L32.070000,45.120000C33.496511,45.125508,34.650011,46.283479,34.650000,47.710000" fill="none" stroke="rgb(113,191,68)" stroke-width="1" stroke-linecap="round" stroke-linejoin="round"/><path id="ee169iqh44910" d="M38,54.340000L38,57.700000C37.994518,59.122618,36.842618,60.274518,35.420000,60.280000L21,60.280000C19.573479,60.280011,18.415508,59.126511,18.410000,57.700000L18.410000,44.320000C18.415482,42.891860,19.571860,41.735482,21,41.730000L35.430000,41.730000C36.852601,41.740986,38.000042,42.897357,38,44.320000L38,47.680000" fill="none" stroke="rgb(113,191,68)" stroke-width="1" stroke-linecap="round" stroke-linejoin="round"/><path id="ee169iqh44911" d="M55,45.090000L55.640000,45.090000C57.068140,45.095482,58.224518,46.251860,58.230000,47.680000L58.230000,55.050000C58.224498,56.084388,57.384403,56.920015,56.350000,56.920000L47.950000,56.920000C46.527382,56.914518,45.375482,55.762618,45.370000,54.340000" fill="none" stroke="rgb(113,191,68)" stroke-width="1" stroke-linecap="round" stroke-linejoin="round"/><path id="ee169iqh44912" d="M45.350000,47.680000C45.349989,46.253479,46.503489,45.095508,47.930000,45.090000L48.820000,45.090000" fill="none" stroke="rgb(113,191,68)" stroke-width="1" stroke-linecap="round" stroke-linejoin="round"/><path id="ee169iqh44913" d="M55,41.730000L59,41.730000C60.428140,41.735482,61.584518,42.891860,61.590000,44.320000L61.590000,57.700000C61.584492,59.126511,60.426521,60.280011,59,60.280000L44.570000,60.280000C43.151289,60.269055,42.005436,59.118743,42,57.700000L42,54.340000" fill="none" stroke="rgb(113,191,68)" stroke-width="1" stroke-linecap="round" stroke-linejoin="round"/><path id="ee169iqh44914" d="M42,47.680000L42,44.320000C41.999989,42.893479,43.153489,41.735508,44.580000,41.730000L48.830000,41.730000" fill="none" stroke="rgb(113,191,68)" stroke-width="1" stroke-linecap="round" stroke-linejoin="round"/><path id="ee169iqh44915" d="M49.060000,29.110000C49.060000,29.110000,49.060000,29.060000,49.060000,29.030000C49.060000,28.626871,48.899858,28.240253,48.614802,27.955198C48.329747,27.670142,47.943129,27.510000,47.540000,27.510000L32.600000,27.510000C31.772105,27.509839,31.096340,28.172266,31.080000,29L31.080000,29.080000" transform="matrix(-1 0 0 1 80.14000129699707 0)" fill="none" stroke="rgb(113,191,68)" stroke-width="1" stroke-linecap="round" stroke-linejoin="round" stroke-dashoffset="19.850000" stroke-dasharray="19.850000"/><path id="ee169iqh44916" d="M31.080000,29.110000C31.122387,29.919751,31.789151,30.555809,32.600000,30.560000L47.550000,30.560000C48.359008,30.555535,49.022755,29.918163,49.060000,29.110000" transform="matrix(-1 0 0 1 80.13999748229980 0)" fill="none" stroke="rgb(113,191,68)" stroke-width="1" stroke-linecap="round" stroke-linejoin="round" stroke-dashoffset="19.580000" stroke-dasharray="19.580000"/><path id="ee169iqh44917" d="M31.080000,51L31.080000,51L31.080000,51C31.079982,51.841106,31.758912,52.524503,32.600000,52.530000L47.550000,52.530000C48.391088,52.524503,49.070018,51.841106,49.070000,51L49.070000,51L49.070000,51" transform="matrix(-1 0 0 1 80.14999961853027 0)" fill="none" stroke="rgb(113,191,68)" stroke-width="1" stroke-linecap="round" stroke-linejoin="round" stroke-dashoffset="19.740000" stroke-dasharray="19.740000"/><path id="ee169iqh44918" d="M49.070000,51C49.043153,50.178457,48.371967,49.524934,47.550000,49.520000L32.600000,49.520000C31.775903,49.519715,31.101687,50.176189,31.080000,51" transform="matrix(-1 0 0 1 80.07499961853028 0.02000000000000)" fill="none" stroke="rgb(113,191,68)" stroke-width="1" stroke-linecap="round" stroke-linejoin="round" stroke-dashoffset="19.640000" stroke-dasharray="19.640000"/><path id="ee169iqh44919" d="M51.900000,31.380000L51.900000,31.380000C51.055004,31.380000,50.370000,32.065004,50.370000,32.910000L50.370000,47.090000C50.369991,47.494868,50.531506,47.883009,50.818727,48.168353C51.105949,48.453698,51.495141,48.612664,51.900000,48.610000L51.900000,48.610000" transform="matrix(1 0 0 -1 0 79.99003028869629)" fill="none" stroke="rgb(113,191,68)" stroke-width="1" stroke-linecap="round" stroke-linejoin="round" stroke-dashoffset="18.980000" stroke-dasharray="18.980000"/><path id="ee169iqh44920" d="M51.900000,48.610000C52.723811,48.588313,53.380285,47.914097,53.380000,47.090000L53.380000,32.900000C53.380285,32.075903,52.723811,31.401687,51.900000,31.380000" transform="matrix(1 0 0 -1 0 79.99000167846680)" fill="none" stroke="rgb(114,191,68)" stroke-width="1" stroke-miterlimit="10" stroke-dashoffset="18.890000" stroke-dasharray="18.890000"/></svg>