<svg id="e9cljc0264zv1" xmlns="http://www.w3.org/2000/svg" xmlns:xlink="http://www.w3.org/1999/xlink" viewBox="0 0 80 80" shape-rendering="geometricPrecision" text-rendering="geometricPrecision"><style><![CDATA[#e9cljc0264zv3_to {animation: e9cljc0264zv3_to__to 2500ms ease-in infinite alternate}@keyframes e9cljc0264zv3_to__to { 0% {transform: translate(52.075001px,31px)} 30% {transform: translate(52.075001px,34.770000px)} 100% {transform: translate(52.075001px,34.770000px)} }#e9cljc0264zv11 {animation: e9cljc0264zv11_s_do 2500ms ease-in infinite alternate}@keyframes e9cljc0264zv11_s_do { 0% {stroke-dashoffset: 6.230000} 30% {stroke-dashoffset: 0} 100% {stroke-dashoffset: 0} }#e9cljc0264zv12 {animation: e9cljc0264zv12_s_do 2500ms ease-in infinite alternate}@keyframes e9cljc0264zv12_s_do { 0% {stroke-dashoffset: 6.040000} 30% {stroke-dashoffset: 0} 100% {stroke-dashoffset: 0} }#e9cljc0264zv13 {animation: e9cljc0264zv13_s_do 2500ms ease-in infinite alternate}@keyframes e9cljc0264zv13_s_do { 0% {stroke-dashoffset: 11.820000} 30% {stroke-dashoffset: 0} 100% {stroke-dashoffset: 0} }]]></style><path id="e9cljc0264zv2" d="M40,1C61.539105,1,79,18.460895,79,40C79,61.539105,61.539105,79,40,79C18.460895,79,1,61.539105,1,40C1.027547,18.472315,18.472315,1.027547,40,1M40,0C17.908610,0,0,17.908610,0,40C0,62.091390,17.908610,80,40,80C62.091390,80,80,62.091390,80,40C80,17.908610,62.091390,0,40,0Z" fill="rgb(113,191,68)" stroke="none" stroke-width="1"/><g id="e9cljc0264zv3_to" transform="translate(52.075001,31)"><g id="e9cljc0264zv3" transform="translate(-52.075001,-34.770000)"><circle id="e9cljc0264zv4" r="0.780000" transform="matrix(1 0 0 1 52.29000000000000 47.78000000000000)" fill="none" stroke="rgb(113,191,68)" stroke-width="1" stroke-linecap="round" stroke-linejoin="round"/><line id="e9cljc0264zv5" x1="42.580000" y1="23.980000" x2="61.810000" y2="23.980000" fill="none" stroke="rgb(113,191,68)" stroke-width="1" stroke-linecap="round" stroke-linejoin="round"/><path id="e9cljc0264zv6" d="M61.830000,44.490000L61.830000,49.400000C61.830000,50.504569,60.934569,51.400000,59.830000,51.400000L44.320000,51.400000C43.215431,51.400000,42.320000,50.504569,42.320000,49.400000L42.320000,20.140000C42.320000,19.035431,43.215431,18.140000,44.320000,18.140000L59.780000,18.140000C60.873465,18.166360,61.753640,19.046535,61.780000,20.140000L61.780000,44.490000Z" fill="none" stroke="rgb(113,191,68)" stroke-width="1" stroke-linecap="round" stroke-linejoin="round"/><line id="e9cljc0264zv7" x1="42.580000" y1="44.430000" x2="61.770000" y2="44.430000" fill="none" stroke="rgb(113,191,68)" stroke-width="1" stroke-linecap="round" stroke-linejoin="round"/></g></g><line id="e9cljc0264zv8" x1="58.220000" y1="53.120000" x2="58.220000" y2="57.470000" fill="none" stroke="rgb(113,191,68)" stroke-width="1" stroke-linecap="round" stroke-linejoin="round"/><path id="e9cljc0264zv9" d="M19.510000,57.470000L19.510000,36.760000C19.510000,35.655431,20.405431,34.760000,21.510000,34.760000L40.330000,34.760000" fill="none" stroke="rgb(113,191,68)" stroke-width="1" stroke-linecap="round" stroke-linejoin="round"/><path id="e9cljc0264zv10" d="M61.850000,57.620000L61.850000,57.620000C61.850000,58.442171,61.523394,59.230668,60.942031,59.812031C60.360668,60.393394,59.572171,60.720000,58.750000,60.720000L18.520000,60.720000C17.697829,60.720000,16.909332,60.393394,16.327969,59.812031C15.746606,59.230668,15.420000,58.442171,15.420000,57.620000L61.850000,57.620000Z" fill="none" stroke="rgb(113,191,68)" stroke-width="1" stroke-linecap="round" stroke-linejoin="round"/><polyline id="e9cljc0264zv11" points="28.050000,46.220000 32.260000,50.780000 32.240000,50.780000" fill="none" stroke="rgb(113,191,68)" stroke-width="1" stroke-linecap="round" stroke-linejoin="round" stroke-dashoffset="6.230000" stroke-dasharray="6.230000"/><polyline id="e9cljc0264zv12" points="28.103267,46.220000 32.039999,50.780000 32.039999,50.780000" transform="matrix(-1 0 0 1 64.27999877929688 0)" fill="none" stroke="rgb(113,191,68)" stroke-width="1" stroke-linecap="round" stroke-linejoin="round" stroke-dashoffset="6.040000" stroke-dasharray="6.040000"/><line id="e9cljc0264zv13" x1="32.240000" y1="38.690000" x2="32.240000" y2="50.510000" transform="matrix(1 0 0 1 0 0.18999954000000)" fill="none" stroke="rgb(113,191,68)" stroke-width="1" stroke-linecap="round" stroke-linejoin="round" stroke-dashoffset="11.820000" stroke-dasharray="11.820000"/></svg>